<svg width="1651" height="219" viewBox="0 0 1651 219" fill="none" xmlns="http://www.w3.org/2000/svg">
<g filter="url(#filter0_d_1_54)">
<path d="M18 0H1623C1632.94 0 1641 8.05887 1641 18V191C1641 200.941 1632.94 209 1623 209H18C8.05887 209 0 200.941 0 191V18C0 8.05887 8.05887 0 18 0Z" fill="#FCF9F0"/>
<path d="M18 2.5H1623C1631.56 2.5 1638.5 9.43958 1638.5 18V191C1638.5 199.56 1631.56 206.5 1623 206.5H18C9.43959 206.5 2.5 199.56 2.5 191V18C2.5 9.43959 9.43959 2.5 18 2.5Z" stroke="#334456" stroke-width="5"/>
</g>
<defs>
<filter id="filter0_d_1_54" x="0" y="0" width="1651" height="219" filterUnits="userSpaceOnUse" color-interpolation-filters="sRGB">
<feFlood flood-opacity="0" result="BackgroundImageFix"/>
<feColorMatrix in="SourceAlpha" type="matrix" values="0 0 0 0 0 0 0 0 0 0 0 0 0 0 0 0 0 0 127 0" result="hardAlpha"/>
<feOffset dx="10" dy="10"/>
<feComposite in2="hardAlpha" operator="out"/>
<feColorMatrix type="matrix" values="0 0 0 0 0.2 0 0 0 0 0.266667 0 0 0 0 0.337255 0 0 0 1 0"/>
<feBlend mode="normal" in2="BackgroundImageFix" result="effect1_dropShadow_1_54"/>
<feBlend mode="normal" in="SourceGraphic" in2="effect1_dropShadow_1_54" result="shape"/>
</filter>
</defs>
</svg>
