<svg width="92" height="64" viewBox="0 0 92 64" fill="none" xmlns="http://www.w3.org/2000/svg">
<path fill-rule="evenodd" clip-rule="evenodd" d="M87.5036 32.0027L60.06 4.50884L48.2494 16.3411L45.9991 14.0866L60.06 0L92.0042 32.0027L60.06 64.0053L45.9966 49.9162L48.2469 47.6618L60.06 59.4965L87.5036 32.0027ZM52.289 43.6124L60.0547 51.3922L79.4089 32.0027L60.06 12.6077L52.2915 20.3905L48.2494 16.3411L32.6164 32.0027L48.2469 47.6618L52.289 43.6124ZM54.541 41.3563L52.289 43.6124L40.7005 32.0027L52.2915 20.3905L54.5418 22.6449L45.2011 32.0027L54.541 41.3563ZM57.7703 38.121L54.541 41.3563L60.06 46.8834L74.9189 32.0027L60.06 17.1166L54.5418 22.6449L57.7728 25.8818L51.6631 32.0027L57.7703 38.121ZM60.0206 35.8666L57.7703 38.121L60.0547 40.4096L68.4463 32.0027L60.06 23.5904L57.7728 25.8818L60.0231 28.1363L56.1637 32.0027L60.0206 35.8666ZM60.0206 35.8666L63.88 32.0002L60.0231 28.1363L60.06 28.0992L63.9563 32.0027L60.06 35.9061L60.0206 35.8666ZM45.9991 14.0866L28.1158 32.0027L45.9966 49.9162L31.94 63.9986L0 32.0002L31.94 0.00181378L45.9991 14.0866Z" fill="#334456"/>
</svg>
