<svg width="86" height="49" viewBox="0 0 86 49" fill="none" xmlns="http://www.w3.org/2000/svg">
<g clip-path="url(#clip0_1_340)">
<path d="M3.64055 7.2853C1.62867 7.2853 0 5.65569 0 3.64265C0 1.62961 1.62867 0 3.64055 0C5.65243 0 7.2811 1.62961 7.2811 3.64265C7.2811 5.65569 5.65243 7.2853 3.64055 7.2853Z" fill="#FAB437"/>
<path d="M3.64055 21.2009C1.62867 21.2009 0 19.5713 0 17.5583C0 15.5452 1.62867 13.8997 3.64055 13.8997C5.65243 13.8997 7.2811 15.5293 7.2811 17.5423C7.2811 19.5713 5.65243 21.2009 3.64055 21.2009Z" fill="#FAB437"/>
<path d="M3.64055 35.1005C1.62867 35.1005 0 33.4709 0 31.4578C0 29.4448 1.62867 27.8152 3.64055 27.8152C5.65243 27.8152 7.2811 29.4448 7.2811 31.4578C7.2811 33.4709 5.65243 35.1005 3.64055 35.1005Z" fill="#FAB437"/>
<path d="M3.64055 48.9999C1.62867 48.9999 0 47.3703 0 45.3572C0 43.3442 1.62867 41.7146 3.64055 41.7146C5.65243 41.7146 7.2811 43.3442 7.2811 45.3572C7.2811 47.3703 5.65243 48.9999 3.64055 48.9999Z" fill="#FAB437"/>
<path d="M16.7658 7.2853C14.7539 7.2853 13.1252 5.65569 13.1252 3.64265C13.1252 1.62961 14.7539 0 16.7658 0C18.7777 0 20.4063 1.62961 20.4063 3.64265C20.4063 5.65569 18.7777 7.2853 16.7658 7.2853Z" fill="#FAB437"/>
<path d="M9.46867 14.235C11.4793 14.235 13.1092 12.6041 13.1092 10.5924C13.1092 8.58058 11.4793 6.94971 9.46867 6.94971C7.45805 6.94971 5.82812 8.58058 5.82812 10.5924C5.82812 12.6041 7.45805 14.235 9.46867 14.235Z" fill="#FAB437"/>
<path d="M16.7658 21.2008C14.7539 21.2008 13.1252 19.5712 13.1252 17.5582C13.1252 15.5451 14.7539 13.9155 16.7658 13.9155C18.7777 13.9155 20.4063 15.5451 20.4063 17.5582C20.4063 19.5712 18.7777 21.2008 16.7658 21.2008Z" fill="#FAB437"/>
<path d="M9.46867 28.1505C11.4793 28.1505 13.1092 26.5197 13.1092 24.5079C13.1092 22.4961 11.4793 20.8652 9.46867 20.8652C7.45805 20.8652 5.82812 22.4961 5.82812 24.5079C5.82812 26.5197 7.45805 28.1505 9.46867 28.1505Z" fill="#FAB437"/>
<path d="M16.7658 35.1005C14.7539 35.1005 13.1252 33.4709 13.1252 31.4578C13.1252 29.4448 14.7539 27.8152 16.7658 27.8152C18.7777 27.8152 20.4063 29.4448 20.4063 31.4578C20.4063 33.4709 18.7777 35.1005 16.7658 35.1005Z" fill="#FAB437"/>
<path d="M9.46867 42.0502C7.45679 42.0502 5.82812 40.4206 5.82812 38.4075C5.82812 36.3945 7.45679 34.7649 9.46867 34.7649C11.4806 34.7649 13.1092 36.3945 13.1092 38.4075C13.1252 40.4206 11.4806 42.0502 9.46867 42.0502Z" fill="#FAB437"/>
<path d="M16.7658 48.9999C14.7539 48.9999 13.1252 47.3703 13.1252 45.3572C13.1252 43.3442 14.7539 41.7146 16.7658 41.7146C18.7777 41.7146 20.4063 43.3442 20.4063 45.3572C20.4063 47.3703 18.7777 48.9999 16.7658 48.9999Z" fill="#FAB437"/>
<path d="M29.8749 7.2853C31.8855 7.2853 33.5155 5.65443 33.5155 3.64265C33.5155 1.63087 31.8855 0 29.8749 0C27.8643 0 26.2344 1.63087 26.2344 3.64265C26.2344 5.65443 27.8643 7.2853 29.8749 7.2853Z" fill="#FAB437"/>
<path d="M22.5937 14.2511C20.5818 14.2511 18.9531 12.6215 18.9531 10.6085C18.9531 8.59543 20.5818 6.96582 22.5937 6.96582C24.6056 6.96582 26.2342 8.59543 26.2342 10.6085C26.2342 12.6055 24.6056 14.2511 22.5937 14.2511Z" fill="#FAB437"/>
<path d="M29.8749 21.2008C27.863 21.2008 26.2344 19.5712 26.2344 17.5582C26.2344 15.5451 27.863 13.9155 29.8749 13.9155C31.8868 13.9155 33.5155 15.5451 33.5155 17.5582C33.5314 19.5712 31.8868 21.2008 29.8749 21.2008Z" fill="#FAB437"/>
<path d="M22.5937 28.1505C20.5818 28.1505 18.9531 26.5209 18.9531 24.5079C18.9531 22.4948 20.5818 20.8652 22.5937 20.8652C24.6056 20.8652 26.2342 22.4948 26.2342 24.5079C26.2342 26.5209 24.6056 28.1505 22.5937 28.1505Z" fill="#FAB437"/>
<path d="M29.8749 35.1005C27.863 35.1005 26.2344 33.4709 26.2344 31.4578C26.2344 29.4448 27.863 27.8152 29.8749 27.8152C31.8868 27.8152 33.5155 29.4448 33.5155 31.4578C33.5314 33.4709 31.8868 35.1005 29.8749 35.1005Z" fill="#FAB437"/>
<path d="M22.5937 42.0502C20.5818 42.0502 18.9531 40.4206 18.9531 38.4075C18.9531 36.3945 20.5818 34.7649 22.5937 34.7649C24.6056 34.7649 26.2342 36.3945 26.2342 38.4075C26.2342 40.4206 24.6056 42.0502 22.5937 42.0502Z" fill="#FAB437"/>
<path d="M29.8749 48.9999C31.8855 48.9999 33.5155 47.369 33.5155 45.3572C33.5155 43.3455 31.8855 41.7146 29.8749 41.7146C27.8643 41.7146 26.2344 43.3455 26.2344 45.3572C26.2344 47.369 27.8643 48.9999 29.8749 48.9999Z" fill="#FAB437"/>
<path d="M42.9999 7.2853C45.0105 7.2853 46.6405 5.65443 46.6405 3.64265C46.6405 1.63087 45.0105 0 42.9999 0C40.9893 0 39.3594 1.63087 39.3594 3.64265C39.3594 5.65443 40.9893 7.2853 42.9999 7.2853Z" fill="#FAB437"/>
<path d="M35.7189 14.2511C33.707 14.2511 32.0784 12.6215 32.0784 10.6085C32.0784 8.59543 33.707 6.96582 35.7189 6.96582C37.7308 6.96582 39.3595 8.59543 39.3595 10.6085C39.3595 12.6055 37.7308 14.2511 35.7189 14.2511Z" fill="#FAB437"/>
<path d="M42.9999 21.2008C40.988 21.2008 39.3594 19.5712 39.3594 17.5582C39.3594 15.5451 40.988 13.9155 42.9999 13.9155C45.0118 13.9155 46.6405 15.5451 46.6405 17.5582C46.6405 19.5712 45.0118 21.2008 42.9999 21.2008Z" fill="#FAB437"/>
<path d="M35.7189 28.1505C33.707 28.1505 32.0784 26.5209 32.0784 24.5079C32.0784 22.4948 33.707 20.8652 35.7189 20.8652C37.7308 20.8652 39.3595 22.4948 39.3595 24.5079C39.3595 26.5209 37.7308 28.1505 35.7189 28.1505Z" fill="#FAB437"/>
<path d="M42.9999 35.1005C40.988 35.1005 39.3594 33.4709 39.3594 31.4578C39.3594 29.4448 40.988 27.8152 42.9999 27.8152C45.0118 27.8152 46.6405 29.4448 46.6405 31.4578C46.6405 33.4709 45.0118 35.1005 42.9999 35.1005Z" fill="#FAB437"/>
<path d="M35.7189 42.0502C33.707 42.0502 32.0784 40.4206 32.0784 38.4075C32.0784 36.3945 33.707 34.7649 35.7189 34.7649C37.7308 34.7649 39.3595 36.3945 39.3595 38.4075C39.3595 40.4206 37.7308 42.0502 35.7189 42.0502Z" fill="#FAB437"/>
<path d="M42.9999 48.9999C45.0105 48.9999 46.6405 47.369 46.6405 45.3572C46.6405 43.3455 45.0105 41.7146 42.9999 41.7146C40.9893 41.7146 39.3594 43.3455 39.3594 45.3572C39.3594 47.369 40.9893 48.9999 42.9999 48.9999Z" fill="#FAB437"/>
<path d="M56.1252 7.2853C54.1133 7.2853 52.4846 5.65569 52.4846 3.64265C52.4846 1.62961 54.1133 0 56.1252 0C58.1371 0 59.7657 1.62961 59.7657 3.64265C59.7657 5.65569 58.1371 7.2853 56.1252 7.2853Z" fill="#FAB437"/>
<path d="M48.8281 14.235C50.8387 14.235 52.4686 12.6041 52.4686 10.5924C52.4686 8.58058 50.8387 6.94971 48.8281 6.94971C46.8174 6.94971 45.1875 8.58058 45.1875 10.5924C45.1875 12.6041 46.8174 14.235 48.8281 14.235Z" fill="#FAB437"/>
<path d="M56.1252 21.2008C54.1133 21.2008 52.4846 19.5712 52.4846 17.5582C52.4846 15.5451 54.1133 13.9155 56.1252 13.9155C58.1371 13.9155 59.7657 15.5451 59.7657 17.5582C59.7657 19.5712 58.1371 21.2008 56.1252 21.2008Z" fill="#FAB437"/>
<path d="M48.8281 28.1505C50.8387 28.1505 52.4686 26.5197 52.4686 24.5079C52.4686 22.4961 50.8387 20.8652 48.8281 20.8652C46.8174 20.8652 45.1875 22.4961 45.1875 24.5079C45.1875 26.5197 46.8174 28.1505 48.8281 28.1505Z" fill="#FAB437"/>
<path d="M56.1252 35.1005C54.1133 35.1005 52.4846 33.4709 52.4846 31.4578C52.4846 29.4448 54.1133 27.8152 56.1252 27.8152C58.1371 27.8152 59.7657 29.4448 59.7657 31.4578C59.7657 33.4709 58.1371 35.1005 56.1252 35.1005Z" fill="#FAB437"/>
<path d="M48.8281 42.0502C46.8162 42.0502 45.1875 40.4206 45.1875 38.4075C45.1875 36.3945 46.8162 34.7649 48.8281 34.7649C50.8399 34.7649 52.4686 36.3945 52.4686 38.4075C52.4686 40.4206 50.8399 42.0502 48.8281 42.0502Z" fill="#FAB437"/>
<path d="M56.1252 48.9999C54.1133 48.9999 52.4846 47.3703 52.4846 45.3572C52.4846 43.3442 54.1133 41.7146 56.1252 41.7146C58.1371 41.7146 59.7657 43.3442 59.7657 45.3572C59.7657 47.3703 58.1371 48.9999 56.1252 48.9999Z" fill="#FAB437"/>
<path d="M69.2343 7.2853C67.2224 7.2853 65.5938 5.65569 65.5938 3.64265C65.5938 1.62961 67.2224 0 69.2343 0C71.2462 0 72.8748 1.62961 72.8748 3.64265C72.8748 5.65569 71.2462 7.2853 69.2343 7.2853Z" fill="#FAB437"/>
<path d="M61.9533 14.235C63.9639 14.235 65.5938 12.6041 65.5938 10.5924C65.5938 8.58058 63.9639 6.94971 61.9533 6.94971C59.9427 6.94971 58.3127 8.58058 58.3127 10.5924C58.3127 12.6041 59.9427 14.235 61.9533 14.235Z" fill="#FAB437"/>
<path d="M69.2343 21.2008C67.2224 21.2008 65.5938 19.5712 65.5938 17.5582C65.5938 15.5451 67.2224 13.9155 69.2343 13.9155C71.2462 13.9155 72.8748 15.5451 72.8748 17.5582C72.8748 19.5712 71.2462 21.2008 69.2343 21.2008Z" fill="#FAB437"/>
<path d="M61.9533 28.1505C63.9639 28.1505 65.5938 26.5197 65.5938 24.5079C65.5938 22.4961 63.9639 20.8652 61.9533 20.8652C59.9427 20.8652 58.3127 22.4961 58.3127 24.5079C58.3127 26.5197 59.9427 28.1505 61.9533 28.1505Z" fill="#FAB437"/>
<path d="M69.2343 35.1005C67.2224 35.1005 65.5938 33.4709 65.5938 31.4578C65.5938 29.4448 67.2224 27.8152 69.2343 27.8152C71.2462 27.8152 72.8748 29.4448 72.8748 31.4578C72.8748 33.4709 71.2462 35.1005 69.2343 35.1005Z" fill="#FAB437"/>
<path d="M61.9533 42.0502C59.9414 42.0502 58.3127 40.4206 58.3127 38.4075C58.3127 36.3945 59.9414 34.7649 61.9533 34.7649C63.9652 34.7649 65.5938 36.3945 65.5938 38.4075C65.5938 40.4206 63.9652 42.0502 61.9533 42.0502Z" fill="#FAB437"/>
<path d="M69.2343 48.9999C67.2224 48.9999 65.5938 47.3703 65.5938 45.3572C65.5938 43.3442 67.2224 41.7146 69.2343 41.7146C71.2462 41.7146 72.8748 43.3442 72.8748 45.3572C72.8748 47.3703 71.2462 48.9999 69.2343 48.9999Z" fill="#FAB437"/>
<path d="M82.3595 7.2853C84.3702 7.2853 86.0001 5.65443 86.0001 3.64265C86.0001 1.63087 84.3702 0 82.3595 0C80.3489 0 78.719 1.63087 78.719 3.64265C78.719 5.65443 80.3489 7.2853 82.3595 7.2853Z" fill="#FAB437"/>
<path d="M75.0624 14.2511C73.0505 14.2511 71.4219 12.6215 71.4219 10.6085C71.4219 8.59543 73.0505 6.96582 75.0624 6.96582C77.0743 6.96582 78.703 8.59543 78.703 10.6085C78.7189 12.6055 77.0743 14.2511 75.0624 14.2511Z" fill="#FAB437"/>
<path d="M82.3595 21.2008C80.3477 21.2008 78.719 19.5712 78.719 17.5582C78.719 15.5451 80.3477 13.9155 82.3595 13.9155C84.3714 13.9155 86.0001 15.5451 86.0001 17.5582C86.0001 19.5712 84.3714 21.2008 82.3595 21.2008Z" fill="#FAB437"/>
<path d="M75.0624 28.1505C73.0505 28.1505 71.4219 26.5209 71.4219 24.5079C71.4219 22.4948 73.0505 20.8652 75.0624 20.8652C77.0743 20.8652 78.703 22.4948 78.703 24.5079C78.7189 26.5209 77.0743 28.1505 75.0624 28.1505Z" fill="#FAB437"/>
<path d="M82.3595 35.1005C80.3477 35.1005 78.719 33.4709 78.719 31.4578C78.719 29.4448 80.3477 27.8152 82.3595 27.8152C84.3714 27.8152 86.0001 29.4448 86.0001 31.4578C86.0001 33.4709 84.3714 35.1005 82.3595 35.1005Z" fill="#FAB437"/>
<path d="M75.0624 42.0502C73.0505 42.0502 71.4219 40.4206 71.4219 38.4075C71.4219 36.3945 73.0505 34.7649 75.0624 34.7649C77.0743 34.7649 78.703 36.3945 78.703 38.4075C78.7189 40.4206 77.0743 42.0502 75.0624 42.0502Z" fill="#FAB437"/>
<path d="M82.3595 48.9999C84.3702 48.9999 86.0001 47.369 86.0001 45.3572C86.0001 43.3455 84.3702 41.7146 82.3595 41.7146C80.3489 41.7146 78.719 43.3455 78.719 45.3572C78.719 47.369 80.3489 48.9999 82.3595 48.9999Z" fill="#FAB437"/>
</g>
<defs>
<clipPath id="clip0_1_340">
<rect width="86" height="49" fill="white"/>
</clipPath>
</defs>
</svg>
