<svg width="264" height="85" viewBox="0 0 264 85" fill="none" xmlns="http://www.w3.org/2000/svg">
<g filter="url(#filter0_d_1_86)">
<path d="M0 10C0 4.47715 4.47715 0 10 0H249C254.523 0 259 4.47715 259 10V70C259 75.5229 254.523 80 249 80H10C4.47715 80 0 75.5229 0 70V10Z" fill="#F9F8F4"/>
<path d="M1.5 10C1.5 5.30558 5.30558 1.5 10 1.5H249C253.694 1.5 257.5 5.30558 257.5 10V70C257.5 74.6944 253.694 78.5 249 78.5H10C5.30558 78.5 1.5 74.6944 1.5 70V10Z" stroke="#334456" stroke-width="3"/>
</g>
<defs>
<filter id="filter0_d_1_86" x="0" y="0" width="264" height="85" filterUnits="userSpaceOnUse" color-interpolation-filters="sRGB">
<feFlood flood-opacity="0" result="BackgroundImageFix"/>
<feColorMatrix in="SourceAlpha" type="matrix" values="0 0 0 0 0 0 0 0 0 0 0 0 0 0 0 0 0 0 127 0" result="hardAlpha"/>
<feOffset dx="5" dy="5"/>
<feComposite in2="hardAlpha" operator="out"/>
<feColorMatrix type="matrix" values="0 0 0 0 0.2 0 0 0 0 0.266667 0 0 0 0 0.337255 0 0 0 1 0"/>
<feBlend mode="normal" in2="BackgroundImageFix" result="effect1_dropShadow_1_86"/>
<feBlend mode="normal" in="SourceGraphic" in2="effect1_dropShadow_1_86" result="shape"/>
</filter>
</defs>
</svg>
