<svg xmlns="http://www.w3.org/2000/svg" viewBox="0 0 512 512"><path d="M481 206.5c-.3 0-2.6 2.6-5.1 5.4l-4.7 5.1-1.7 2.7c-2.4 4.1-4.5 8.4-7.2 12.4-.3.5-.6.9-1 1.4-1.2 1.6-2.5 3.2-4 4.6l-1.7 2c-2.9 3.3-5.9 6.5-8.9 9.6-2.2 2.3-4.5 4.5-6.8 6.7-1.3 1.2-2.6 2.5-3.8 3.7L424.8 271c-.3.3-.6.5-.9.8l-7.9 7.6-6.9 6.6c-10.3 9.9-20.9 19.4-32.5 27.8 3.2 13.9 8.5 27.3 6.5 42.1.9 14.4 3.1 28.6 3.8 43 2.2 11.4 2.5 23.1 3.8 34.7 3.7 10.1 4.2 20.6-.1 30.7-6.3.2-11.6-6.5-17.2-9.2-9.1-5.4-19.4-8-28.5-13.3-8.6-2.5-15.1-8.1-22.1-13.2-4.6-2.1-9.7-2.5-14.4-4.2-7.2-2.7-14.9-4.2-22.2-6.6-10.3-3.4-20.3-7.6-30.5-11.1-1.5 0-3.5 1.7-4.8 2.4-5.8 5.8-13 9.3-20.5 12.2l-7.5 2.7c-4.1 1.4-8.3 2.9-12.3 4.5l-4.8 2.1c-.9.4-1.9.9-2.8 1.4-1.4.7-2.7 1.5-4 2.3-.1.1-.2.1-.3.2l-6.1 2.4a102.91 102.91 0 0 0-6.9 3c-4.1 1.8-8.1 3.7-12.2 5.6-2.3 1.1-4.7 2.2-7 3.4-.5.2-.9.4-1.4.7l-14.3 6.6-7.2 3c-2.7 1.1-5.5 2.1-8.2 3-.4.1-.8.3-1.2.4-4.6 1.5-9.2 2.8-14 3.8.7-2.3 1.3-4.5 1.8-6.8.6-2.7 1-5.4 1.3-8.1.3-2.6.5-5.3.7-7.9.2-3.2.3-6.4.4-9.6l.4-14.9c.1-.9.1-1.8.2-2.7.2-2.3.4-4.5.7-6.8 0-.3.1-.5.1-.8 1.1-4.2 1.9-8.6 2.6-13.3l.9-6.8c.2-2 .5-4.1.6-6.2a341.29 341.29 0 0 0 .9-14.7c.2-3.9.3-7.8.4-11.6.1-3.2.1-6.5.1-9.7l-.1-27.5c-2.2-2.2-3-6.7-4.9-9.4-3.3-3.8-7.2-7.1-10.4-11.1-5.2-5.9-12.8-9.7-16.9-16.8-24.4-24.9-58.9-44.1-68.3-80 1.8.9 6.5-2 8-2.9 15.9-4.2 32.4-4.8 48.8-6.4 17.1-5.4 34.3-10.7 52.3-12.2 12.9-2.1 30.3-5.1 39.8-16 6-10.9 15.1-19.9 18.1-32.3 3.3-6.9 9.9-11.9 11.6-19.6C221.1 91.8 232 69.9 248 52.2c2.1-2.1 4.1-4.2 5.9-6.6 3.3 1.8 6.4 4.2 7.8 7.7 7.4 13 13.9 26.3 18.5 40.5 8.6 14.2 17.4 27.9 20.7 44.4 4.6 15.1 17.8 25.2 26.7 37.7 9.3 3.6 19.1 7.1 29 9.4 3.2.7 6.4 1.4 9.6 1.8 1.4.2 2.8.4 4.2.5 2.3.1 4.6.3 6.9.5 4.9.4 9.8 1 14.7 1.7l6 .9c2.8.4 5.6.9 8.3 1.4 4.6.8 9.1 1.7 13.7 2.7l9 1.9 1.4.3 16.2 3.5 10.6 2.2 23.8 3.8z" fill="#f46a37"/><path d="M282.3 244.2c.4-1 2-1.9.2-2.7 1.2-3.2 4.4.6 5.2-3.7 2.2.7 2.5-2.8 4.9-2.1-.2-2.1 6.3-4.1 8.1-4.4 2.2.3 4-.5 6.1-1 3.1.1 3.1.1 5-1.4 1.2 3 2.4.1 4.5.1 2.9.2 7-.2 9.3 1.4.5-.1.3-.8.9-.8 1.4.3 1.7 2.3 3.6 2.1 4.1 5.3 4.3-3.4 7.3 4.4-1.5 2.2-3.2 8.2-5.6 6.6-.1.7-.1 1.6-.5 2.2-.4.7-1 1.2-1.4 1.7 1.9 3.7-1.1 6-2.2 9.3 2.1.8-.9.8-1.1 1.5 1 1.3-.1 3.2 1.4 4.4-4 .7-.4 5.9-3.1 8.6 1.8.3.6 2.8 2.5 2.9.2 1.2-.6 1.8-1.5 2.4 4.2 1.1.9 6.9 4.4 6.2.4 2.6-1 1.1-1.9 2.3.7 1.6 2.8 1.2 3.8 2.6 3.7 2.3-1.9 2.9 2.5 5 1.7 4.2 5.1 7.6 7.3 10.6 1.2 4-2.2 3.2-4.5 4.7-.9-.3-1.4-1.3-2.6-1.1-5 6.3-3.3.6-7.4 3.4-.4-1.6-2.3-.6-3-2.2-.4 2.4-1.7 2.7-3.2 1.2-1.4.8-1.6 2.4-3.3 1.3-.9.6-1.2.6-2.2-.3-3.6 3.3-6.7-4.7-10.9-1.7-2.4 1.9-3.3-1.4-5.4-1.6-1.5.2-2-1.3-3.1-2.1-2.9-.5-7.9-2.7-8.1-6.1-2.1-.4-2.8-1.9-3.4-3.5-2.1 1.2-.9 1.2-2.7-.6 2.3-1.3 2.7-1-.1-1.9.1-2.1-2.6-3.5-3-5.5-1-1 1-2.6-.8-3.2.1-2.1 1-4-1.8-4.6-.3-2.9.8-5.8-.8-8.5-.6-.6-.9-2.5.8-3.1-1.4-1.7-1.4-4.5-.4-6.6 0-1.7-1.4-3 .2-4.6.1-2 2.7-3.3.3-5.2 2.8-1.5 3.3-4.8 5.3-6.6 0 2.7 2.5.2.4.2zm-65.7 60c-2.9 6.4-5.1.5-7 3.1-2.8 4.4-4.1-.6-6.4 2.6-.6-1.6-2.3-1-3-2.1-.8 1.7-1.5 2.7-3.1 1-3.5 2.8-2.4-.5-4 1.1-.5.7-.9 0-1.4-.6-1.4.8-3.6 1.8-2-.7-.8-.8-.9.4-1.6.4-.9-1.3-2.7-1.7-4.1-3-.8 1.3-3.5 1.3-4.4.1-1.6 2.3-5.7-1.7-7.8-2.2-4.8-.9-7.5-4.5-10.3-8.4-.4-1.7-.6-1.6-1.8-.4-1.5-1.6-1.4-1.7.5-2.5-.2-1.2-1.4-.2-1.9-1 .4-1.2-.8-1.9-1.4-2.7-2.3-2.5-2.1-6.1-2.1-9.3-3.8-1.6-.4-6.6-2.9-9.6-.6-.7-.6-2.4.8-3.2-1.6-1.5-1.4-4.6-.4-6.5.1-1.6-1.5-2.9.1-4.4.7-.9 0-2.2 1.3-3 .7-.4-.3-1.6-.9-2.3 2.7-1.9 3-5.3 5.7-7.1.9-.5.9-.7.1-1.8 1.3-3 4.3.3 4.9-3.7 2.2.4 2.7-2.7 5.1-2.3.2-1.2.7-2.3 2.2-2.2 2.2-.2 3.6-2.4 5.9-2 1.7-.1 3.5.2 5.1-.9 2-.1 4.2.8 5.6-1.5 1.2 1 1.4 2.5 3.2.6 3.1-.5 8.3-1.3 10.9.5 1.4-2.5 2.2 1.7 4.2 1.3.7 0 .8.8 1.2 1.1 1 .8 1.5 1.6 2.8.2 2.6-1.6 2.6 3.9 5.2 3.2.4 1.8-.6 1.9-2 2.1-1 2.3-1.9 4.3-3.5 6-.2 3-3.9 1.9-3.7 5.2-1.5 3.2-3.8 6.1-4 9.8-2.4 2.6.9 6.4-3 8.4.7.9 2.2 0 2.2 1.4.1 2.6-2.2 4.6-.5 7.3-3.2 1.9 3.4 6 .1 8.6 5.2-.4 1.2 8.7 4.9 5.9 0 1 1.6 1.1 1.3 2.3 0 1.8 2.1 4.2 3.9 4.1.3 2.5 1.1 2.7 3.1 4.1.8 1.1 2.9 1.6 2.9 3zm-58.3-59.3c0 .8 1 .5.9-.2-.1-.8-1.3-.6-.9.2z" fill="#fff"/><path d="M216.6 304.2c0-1.3-2.1-1.8-2.6-3.2-2-1.4-2.8-1.6-3.1-4.1-1.8.1-3.9-2.3-3.9-4.1.3-1.2-1.3-1.3-1.3-2.3-3.7 2.8.3-6.3-4.9-5.9 3.4-2.6-3.3-6.7-.1-8.6-1.7-2.7.6-4.7.5-7.3 0-1.4-1.5-.4-2.2-1.4 3.9-2 .6-5.8 3-8.4.2-4.7 3.9-7.7 4.7-12.3 1.6-.3 3-.7 3.1-2.7 1.6-1.7 2.5-3.8 3.5-6 1.3-.1 2.3-.3 2-2.1 1.2-.1 1.6 1.7 3.1.9-1 4.8 5.2 5.3 7.2 7.9 1.6 2.9 2.2 6.2 2.8 9.3 1.7 1.6 3.2 3.8 1.2 5.7 1.4.9 1.3 3.1 3.7 3.1-1.4 2-1.3 4-1.2 6 .4 1.8-1.9 2.9-.5 4.3 1.6 1.3-.9 2.2-.5 3.4 1.7 1.2.3 3.5 1.9 4.9.6.5.1 1.5-.4 2-4.5 3.5-.5 3.3-3 7 .4 4.6-5.7 5.3-5 9.9-1.9-.6-2.8 1.2-4.4.9-.4 2.7-.4 1.7-2 1.1-1.1.3.3 2.4-1.6 2zm125.4-1.6c-1.5-.1-.3-1.7-1.1-2.2-3.9-2-4.9-7.6-8.1-10.1 2.9-3.4-3.1-3.8-4.4-5.9.9-1.2 2.3.3 1.9-2.3-3.5.7-.3-5.1-4.4-6.2.9-.6 1.7-1.2 1.5-2.4-1.9-.1-.7-2.5-2.5-2.9 2.7-2.7-.9-8 3.1-8.6-1.5-1.2-.4-3.1-1.4-4.4.2-.8 3.2-.7 1.1-1.5 1.1-3.3 4.1-5.6 2.2-9.3 1.2-.9 1.9-2.3 1.9-3.9 2.4 1.6 4.1-4.4 5.6-6.6 1.8-.7 3 1 4.7 1.2-.6 4.1 4.1 5.4 6.7 7.1 1.5 1.4 2 3.2 2.2 5.1 1.1.7.9 1.7.8 2.7-.1 2.3 1.8 3.8 2.9 5.5-.3.7-.5 1.4-.8 2.3 1.5.5 1.1 3 3.3 2.9.1 1.7-1.6 2.4 0 3.6-1.9 1.1 0 4.2-1.9 5.4-.1.8.2 1.2.6 1.6 1.7 1.8-2.2 2.8.1 4.5.9.8-.3 2.5.8 3.3 2.4 2.1-2.3 3.6-2.4 5.3 1.3 6.2-5.3 8.6-5.7 13.4-1.8-.5-2.7 1.3-4.1 1-.6.6-.1 1.5-.7 1.9-.8.3-.9-1.9-1.9-.5z" fill="#040202"/><g fill="#f9b501"><path d="M191.4 431.4c-2.4-1.7-3-4.5-4.9-6.4-2.9-2.6-4.6-7.3-8.4-7.3.7-2.7-1-3-2.6-4.5-1.4-1.8-2.7-5.1-5.3-2.8-2.8-.8-3.1-7.6-8.1-6.9-3.3-6.7-14.4-6.8-20.6-12-2.5-2.2-7.9-2.4-12.1-2.9l-.9 6.8c2.5-.1 4.9.8 6.6 3.1 2.7.7 6.3 1.1 9.4 1.7 0 3.2.8 2.7 3 2.5 2.6 1.7 5.1 5 8.7 3.4 1.7.8.4 1.9.8 2.9 2.8 1.8 4.9 4.3 7.9 4.7 2.9 5.6 9.8 8.8 13.2 14.2 3 4.1 5.7 7.9 7.8 11.9l6.9-3c-1.1-1.7-2.8-2.7-1.4-5.4zm-27.2 2.5c-3.6-5.9-8.9-10.9-14.9-13.7-.7-1.7-1.5-2.6-3.3-1.6-.1-3.9-4.5-2.3-6.7-3.7-4.1-3.5-8.5-4.8-13.4-5.4-.3 2.3-.5 4.6-.7 6.8.2-.1.3-.2.5-.3 2.3 1.2 4 3.5 6.9 3.1 4.2 3.1 9.5 4.3 14 8 2.9.1 2 1.9 4.4 3.5 3.9-2.5 4.5 4.8 6.9 6.6 4.8 4.7 7.5 8.3 9.1 11.6l7-3.4c-2.1-4.9-5.8-10-9.8-11.5zm-2.3 10.4c-4.4-5.3-10.8-12-17.2-16.5-3.6-2.2-7.7-4.6-10.7-3.6-1.4-2.1-3.8-4-6.3-4.8-.9.1-1.8-.1-2.6-.3-.3 5-.3 9.9-.4 14.9.8.3 1.6.7 2.4 1.1 10.9 4.1 19.1 11.8 24.2 21.1 4.8-2.1 9.6-4.3 14.3-6.6-.5-1.8-2.7-3.3-3.7-5.3zm-26.3 7.6c-2.8-4-6.8-6.6-11.4-8.3l-.7 7.9c3.4 1.4 6.5 3.2 8.9 6.1-4.3 1.3-7.6 1.9-10.2 2.1-.5 2.3-1 4.5-1.8 6.8 4.8-1 9.4-2.3 14-3.8 0-.4 0-.9.1-1.5.4.4.8.8 1.2 1.1l8.2-3c-1.2-3.7-6.3-6.1-8.3-7.4zm94.9-30.6L223 424c-17.4-32.3-49.1-60-85.1-66.2-2.2-.7-4.4-1.2-6.6-1.8.1-3.2.1-6.5.1-9.7l1.8 1.5c3.1-1.5 5.5 1.2 8.9.1 3.9 4.2 8.8 1.4 12.2 4.9 4.8 1.1 8.9 4 13.1 7.1 6.9-.9 11.4 3.7 15.5 7.9 4.4 2.4 10.7 4.3 12.3 9.9 6.3 1.8 11.1 6.5 12.7 12.3 2.4 1.2 5.3 1.8 5.8 5.2 1.8 1.6 4.9 2.1 4.9 5.3 4.9 2.9 5.4 8.4 7.5 13.5 1.7 2.4 3.1 4.9 4.4 7.3zm-24 0c1.2-1 .1-2.7.3-4.4l-2.7 1c3.3-3.8-7.6-12.4-11.7-13.9-.4-3.6-5.2-11.7-10.2-8.9-.5-6.1-7.1-9.3-12.5-10.1-2.2.2-1.9-1.9.2-2.5-2.5-2.5-8.8-6-10-2-2.9-.9-1.3-5-6.4-4.7-2.2-2-10.1-8.8-10-2.1-2.8-5-7.4-5.5-11.8-6.2-.2.1-.4.1-.6.2a341.29 341.29 0 0 1-.9 14.7c1.2.1 2.4-.1 3.7-.7 7.1 1.7 14 9.9 20.9 4.6-1.9 7.1 5.2 7 10.2 4.9-4.3 3.3-1.3 7.4 2.8 5.3.7 4 4.2 8.6 8.5 5.6 1.8 3.4 3.8 6.3 6.3 9.2 1.4 1.7 2.6 6.7 5.6 4.8 1.3 5.5 5.7 9.4 9.3 13.6 3.1-1.9 7-2.1 2.9-6.7 2.8-.1 2.7 3.8 4.8 3 2.2-1.2 5-3.4 1.3-4.7zm-72.6-46.4c2.6-.6 5.4-1.1 7.1 1.5-2.5 0-4.7 0-7.1-1.5zm14.1 4.4c2.6-.9 4.6-.3 4.2 2.7 2.8.2 4.2-.3 6.4 2.1-3 2.6-6.5-3.2-10.6-4.8zm18.2 8.7c-1.3 1.4-2.2.6-3.6-.5 2.7-1.1 4.7 0 7.3 1.3-1 4.5-2.5 1.6-3.7-.8zm8.8 8c-2-.3-2.3-1.9-2.8-3.1.9 1 3.5 1.2 2.8 3.1zm8.7 6.5c-2.2.4-1.9-2.3-2.6-3.9 3-.2 3.8.9 2.6 3.9zm2.1 4.8c.2-1-.6-3 .6-2.9.6 1.5 1.9 2.8-.6 2.9zm4.1 2.6c1.8-1.2 2.1-1 2.5 1.6-1.4.2-2.1-.4-2.5-1.6zm8.7 9.6c-1.2-2-.4-3.1 1.9-2.7-.7.9-1.2 1.6-1.9 2.7zm7.4 11.1c1.6-.8 3.1-1.5 4.8-2.1-2.8-3.7-7.2-.5-4.8 2.1zm-8.1 2a11.51 11.51 0 0 1 1.4 1.7l4-2.3c-2.8-1.7-4.9-3-5.4.6zm248.8-183.1c-6-.2-12.9-11.2-19.5-9.7.5-1.8-.1-2.7-1.7-3.2-1.9-1.1-2.6-3.5-5.1-3.6-2.9-.5-.2-4.1-4.2-4.5 3.9-3.2-1-3.8-3-5.2 3.3-4.5-1.4-5.7-1.5-9.1.3-2.6-.2-7.5-3.5-7.8 1.8-4.7-2.9-7.8-.7-12.2-.7-.8-1-1.5-1.1-2.3l-8.3-1.4c.6 3.8 1.3 7.1 1.3 10.8 5.4 15.9 9 34.5 25.1 41.7-3.2 6.6 5.1 2.5 7.5 5.5-2.6 6.6 5.5 1.1 5.6 6.6.8.3 1.6.7 2.4 1.1a105.86 105.86 0 0 0 6.7-6.7zm-.5-24.7c-3-.1-3.5-3.4-6.5-3.6-2.6-1.4-2-5.7-5.9-5.1-.2-2 .4-5-2.5-4.9.2-4.9-.9-9.7-2.1-14.6l-9-1.9c1.4 8 4.1 15.9 7.9 22.6.8 5.4 6.8 8 9.2 12.2 4.2-3.2 2.3 2.1 5.4 3.7 3.2-2.6 4.9 3.7 8.1 4.8l2.9-.3c.5 1.4 1.2 2 2 2.1.6-.6 1.1-1.3 1.7-2 1.5-1.4 2.8-3 4-4.6-5.4-1.9-10.6-4.6-15.2-8.4zm.6-24.5l-16.2-3.5c2.3 10.1 5.5 20 14.8 25.7.2 1.4 7.1 6.6 8.9 4.4-.9 1.7 3.3 3.6 8 5.1 2.7-3.9 4.8-8.2 7.2-12.4-12.1-3.5-19.1-10.5-22.7-19.3zm10.6 2.2l1.2 1.8c3.2 3.7 6.2.7 7.9 3.2 1.2 2 1.4 2 3.5 1.2 2 .3 3.8 2.1 5.9 3.1 2.5-2.8 4.8-5.4 5.1-5.4-7.9-1-15.8-2.4-23.6-3.9zm-41.3 76.9l-6.9 6.6h-.2c-3-.4-1.7-5-5.1-4.5-1.2.1-1.8-.6-2.3-1.6-.9-3.2-4.3-2.9-6.7-3.9.2-3.6-4-7.5-7.1-8.5-4.7-1.4-5.1-7.4-8.4-9.9.8-3.7-2-4.8-4.8-6.4.6-4.9-4.6-6.7-4.6-10.9-4-2.6-.7-7-4.2-9.9-3.9-3.6-2.2-8.9-4.1-13-3-6-3.4-11.4-3.8-18.2-1.2-.9-1.2-2.3-.5-4-1.1-2.7-1.7-6.7-.8-9.2v-.5c3.2.7 6.4 1.4 9.6 1.8 1.2 36.7 16.9 69.9 49.9 92.1z"/><path d="M398 225.6c4.2-3 1.4-8.5-2.7-10.2 5-3.7-3-7.9-.7-11.7-2.3-4.7-2.5-9.3-2.4-14-4.9-.7-9.8-1.2-14.7-1.7.5 7.2 1.4 13.7 1.9 14.9-.8 1.9.5 5.3 2.8 5.8.7-.3 1.3-.6 2.2-1v3.6c-2.2-4.1-5.5-1.7-1.7 1.3-1.5 4.1 1.6 7.1 5 3.1-1 2.1-1 2.1-4.4 2.9-.3 2.6 2 4.8 4.7 3.9-2.8 5.2 1.8 17.6 7.2 9.2 8.3 6.6 10.8-6.2 2.8-6.1zm-13-31.4c1.2 1.9-.6 1.9-2.4 2.6.4-1.8 1.1-1.8 2.4-2.6zm1.4 16.8l1.2-2.4c1.6.5.5 5.5-1.2 2.4zm-4.8-7.6c-1.8-2.2 1.1-2.3 3-2.5.9-.5 1.4-2.1 3.2-1.3-3.8 1.8-1.1 3.8 1.4 3.1-1.1 5.3-5.5-4.4-7.6.7zm10.3 19.5c.5-1.5-.2-2.4-1.6-3.1 2.7-4.1 5.9.8 1.6 3.1zm29.1 29.3c-1.3-2.2-1.9-5-5.2-4.8-2.5 7.5 11.4 11.7-2.1 13.3-.1 3 1.9 5.4 3.5 2.7 3.4-.9 4.9 2.5 1.4 3.7 1.2 2.8 3.4 1.4 5.3 1.6.2 1.3.5 1.9.9 2.2 3.7-3.7 7.5-7.2 11.3-10.9-4.5-3.3-10.4-5.6-15.1-7.8zm4.5 8.2c1.2 2.2 1.2 2.2 4 2.8 1.6 3.1-6.1 0-4-2.8zm-20-21.9c6.7-2.3-5.6-7.6-8.3.1 1.1-6.8-6.5-4.5-4.9 1.8 4.2.7 2.6 5.5 6.3 6-2.6 7.3 18.1 14.5 7.9 2.1 2-.3 1.1 1.6 2.4 2 2.7.4 4-1.6 4.6-4-1.6-3.9-3.5-6.9-8-8zm-6 6.2c-1.5-.9-.1-1.6 0-2.5-.5-1.1-.9-2 .4-2.8 4.3 0 .7 5.4 5.6 4.5-.5 7.4-2.7-2.3-6 .8zm15.3 10.3c.9.8 2.8 3.6.3 3.7-3.6-.5-3.3 4.7-6.8 1.2 2.8-1.3 2.6-2.8 2.3-5.3 1.5-3.3 5.2-5 4.2.4z"/></g></svg>
