<svg width="132" height="132" viewBox="0 0 132 132" fill="none" xmlns="http://www.w3.org/2000/svg">
<path d="M129.448 65.9912C129.448 101.057 101.029 129.482 65.9738 129.482C30.9188 129.482 2.5 101.057 2.5 65.9912C2.5 30.9253 30.9188 2.5 65.9738 2.5C101.029 2.5 129.448 30.9253 129.448 65.9912Z" fill="#F9F8F4" stroke="#334456" stroke-width="5"/>
<path d="M28.7641 59.2444L15.8403 58.6616L16.4371 56.739L26.4704 57.2771L17.9314 51.9244L18.5181 50.0341L28.5754 50.4379L20.0074 45.2356L20.6042 43.313L31.5923 50.1322L30.8903 52.3941L21.5182 52.0076L29.4662 56.9825L28.7641 59.2444Z" fill="#334456"/>
<path d="M28.3447 39.4795C28.6794 39.0257 29.0298 38.7025 29.3961 38.5099C29.769 38.3082 30.1177 38.1868 30.4424 38.1456C30.767 38.1044 31.0276 38.0931 31.224 38.1116L31.2843 38.0299L30.2079 37.2382L31.3525 35.6862L38.5738 40.9981L37.4292 42.55L36.3528 41.7583L36.2926 41.8399C36.3686 42.0218 36.4351 42.2737 36.4919 42.5955C36.5488 42.9174 36.5361 43.286 36.4539 43.7015C36.3783 44.1079 36.1732 44.538 35.8385 44.9918C35.4369 45.5363 34.981 45.936 34.4709 46.1907C33.9584 46.4297 33.4246 46.555 32.8695 46.5667C32.3054 46.5717 31.7506 46.4785 31.2051 46.2873C30.6663 46.0869 30.1653 45.8164 29.702 45.4756C29.2387 45.1349 28.8314 44.7373 28.48 44.2828C28.1354 43.8193 27.8863 43.3211 27.7329 42.7882C27.5703 42.2487 27.5319 41.7024 27.6175 41.1494C27.7007 40.5807 27.9431 40.024 28.3447 39.4795ZM29.8901 40.0913C29.5621 40.536 29.4103 40.9983 29.4347 41.4782C29.4499 41.9514 29.5869 42.4021 29.8455 42.8303C30.1109 43.2495 30.4479 43.6094 30.8566 43.9101C31.2654 44.2108 31.7095 44.4255 32.1891 44.5542C32.6753 44.6739 33.1514 44.6741 33.6176 44.555C34.0746 44.4293 34.4672 44.144 34.7952 43.6993C35.1231 43.2546 35.2761 42.8002 35.2542 42.336C35.2298 41.8561 35.085 41.4066 34.8196 40.9875C34.561 40.5592 34.2273 40.1948 33.8186 39.8941C33.4098 39.5934 32.9623 39.3833 32.4761 39.2636C31.9966 39.1349 31.5283 39.1334 31.0713 39.2592C30.6118 39.3692 30.2181 39.6465 29.8901 40.0913Z" fill="#334456"/>
<path d="M43.807 37.218C43.2534 37.6632 42.7283 37.9192 42.2316 37.9859C41.7349 38.0526 41.2773 37.9793 40.8589 37.7659C40.4422 37.5367 40.0746 37.2245 39.756 36.8296L36.7825 33.143L35.5568 34.129L34.5798 32.9176L35.8055 31.9317L34.4037 30.1937L35.9061 28.9851L37.3079 30.723L38.9422 29.4084L39.9192 30.6197L38.2849 31.9343L41.2372 35.5946C41.7682 36.2529 42.3983 36.2887 43.1276 35.7021C43.3121 35.5537 43.4728 35.4027 43.6097 35.2491C43.7466 35.0956 43.8151 35.0188 43.8151 35.0188L44.8027 36.2433C44.8027 36.2433 44.707 36.3492 44.5157 36.561C44.3331 36.7657 44.0969 36.9847 43.807 37.218Z" fill="#334456"/>
<path d="M51.7293 32.8705C51.0424 33.185 50.3885 33.3416 49.7677 33.3406C49.1421 33.3292 48.5685 33.2011 48.0467 32.9563C47.5202 32.7011 47.0545 32.3624 46.6497 31.9399C46.2552 31.5128 45.9379 31.0378 45.698 30.5151C45.4581 29.9924 45.3049 29.4423 45.2385 28.865C45.1823 28.283 45.2316 27.7147 45.3865 27.1601C45.5366 26.5952 45.8139 26.0776 46.2184 25.6072C46.6181 25.1266 47.1614 24.729 47.8484 24.4146C48.525 24.1048 49.1308 23.9516 49.6658 23.9548C50.2063 23.943 50.678 24.0247 51.081 24.2C51.484 24.3752 51.8203 24.5809 52.09 24.8171C52.3598 25.0534 52.557 25.2669 52.6819 25.4579C52.817 25.6441 52.8845 25.7372 52.8845 25.7372L51.2236 26.4975C51.2236 26.4975 51.1627 26.4323 51.0408 26.302C50.9293 26.1671 50.7598 26.0276 50.5324 25.8836C50.3051 25.7396 50.0228 25.6518 49.6857 25.62C49.3588 25.5836 48.9749 25.6663 48.5341 25.8681C48.0112 26.1075 47.6366 26.4402 47.4103 26.8662C47.1793 27.282 47.068 27.7423 47.0763 28.247C47.0949 28.747 47.2148 29.2379 47.4358 29.7196C47.6569 30.2014 47.9511 30.6124 48.3182 30.9529C48.6957 31.2887 49.1198 31.51 49.5907 31.6169C50.0569 31.7136 50.5514 31.6423 51.0743 31.4029C51.5152 31.2011 51.8285 30.9647 52.0142 30.6936C52.2102 30.4179 52.3279 30.147 52.3671 29.881C52.4063 29.615 52.4111 29.3957 52.3815 29.2232C52.3622 29.046 52.3526 28.9574 52.3526 28.9574L54.0135 28.1971C54.0135 28.1971 54.04 28.309 54.0931 28.5328C54.1564 28.7518 54.1897 29.0405 54.1928 29.3987C54.1959 29.757 54.1324 30.1457 54.0023 30.565C53.8721 30.9843 53.6285 31.3996 53.2715 31.8111C52.92 32.2077 52.406 32.5608 51.7293 32.8705Z" fill="#334456"/>
<path d="M57.4335 30.8337L55.3525 18.1462L57.2553 17.835L58.0959 22.96L58.1961 22.9437C58.2484 22.7751 58.3509 22.5641 58.5036 22.3105C58.6544 22.0459 58.8821 21.7972 59.1867 21.5645C59.5025 21.33 59.9218 21.17 60.4448 21.0844C61.1013 20.9771 61.6768 21.0372 62.1711 21.2649C62.6655 21.4926 63.0651 21.8386 63.3697 22.303C63.6856 22.7656 63.8928 23.2974 63.9913 23.8984L64.9278 29.6077L63.025 29.919L62.1214 24.41C62.0338 23.8758 61.8096 23.4496 61.449 23.1315C61.0994 22.8115 60.6353 22.6989 60.0567 22.7936C59.6005 22.8682 59.2469 23.046 58.9959 23.3271C58.7542 23.5952 58.5968 23.9238 58.5235 24.3129C58.4484 24.6909 58.4446 25.0857 58.5121 25.4975L59.3363 30.5224L57.4335 30.8337Z" fill="#334456"/>
<path d="M77.4378 31.6197L76.9204 18.3757L78.9104 18.9819L79.2851 29.9719L85.7218 21.0569L87.7118 21.6631L79.8646 32.359L77.4378 31.6197Z" fill="#334456"/>
<path d="M91.5618 26.5389C91.261 26.3609 91.0739 26.1127 91.0007 25.7942C90.9274 25.4757 90.9713 25.1806 91.1324 24.909C91.2993 24.6278 91.5373 24.4475 91.8465 24.3684C92.1614 24.2795 92.4693 24.3241 92.7701 24.5021C93.071 24.6801 93.258 24.9284 93.3313 25.2469C93.42 25.5614 93.3809 25.8593 93.2141 26.1406C93.0472 26.4219 92.8015 26.6041 92.4769 26.6872C92.1677 26.7663 91.8627 26.7169 91.5618 26.5389ZM85.3871 35.0914L89.9613 27.3806L91.6208 28.3624L87.0466 36.0732L85.3871 35.0914Z" fill="#334456"/>
<path d="M93.0788 41.1828C92.59 40.7151 92.2521 40.2122 92.065 39.6742C91.8939 39.1359 91.8383 38.5911 91.8984 38.0398C91.9663 37.4805 92.1304 36.943 92.3907 36.4273C92.6592 35.9194 92.9925 35.458 93.3907 35.043C93.7889 34.628 94.2362 34.2757 94.7329 33.9862C95.2376 33.7044 95.7644 33.5218 96.3133 33.4383C96.8701 33.3467 97.4174 33.3789 97.9555 33.5348C98.5095 33.6903 99.0309 34.002 99.5197 34.4697C99.9271 34.8595 100.203 35.2482 100.347 35.6357C100.499 36.0309 100.574 36.392 100.573 36.7188C100.572 37.0456 100.55 37.3051 100.506 37.4973L100.58 37.5675L104.198 33.7959L105.591 35.1291L96.6912 44.4054L95.298 43.0722L96.2231 42.108L96.1498 42.0378C95.9594 42.0897 95.7007 42.1231 95.3738 42.1381C95.0469 42.153 94.6825 42.0931 94.2806 41.9582C93.8868 41.8311 93.4862 41.5726 93.0788 41.1828ZM94.4969 40.3157C94.8961 40.6977 95.3276 40.9076 95.7913 40.9456C96.2709 40.9831 96.736 40.8975 97.1864 40.6886C97.645 40.4875 98.05 40.2039 98.4013 39.8377C98.7526 39.4715 99.0191 39.0554 99.2007 38.5892C99.3904 38.1309 99.4523 37.6673 99.3865 37.1984C99.3365 36.7292 99.112 36.3036 98.7127 35.9216C98.3135 35.5396 97.8741 35.3298 97.3944 35.2922C96.9226 35.2465 96.4574 35.3242 95.9988 35.5253C95.5483 35.7342 95.1474 36.0217 94.7961 36.3879C94.4448 36.754 94.1743 37.1663 93.9845 37.6247C93.8029 38.0908 93.7412 38.5624 93.7992 39.0394C93.8651 39.5082 94.0977 39.9336 94.4969 40.3157Z" fill="#334456"/>
<path d="M99.8395 50.2258C99.4572 49.5741 99.2383 48.9444 99.1827 48.3368C99.1424 47.7332 99.2209 47.1647 99.4179 46.6314C99.6304 46.1022 99.9295 45.6202 100.315 45.1856C100.707 44.7608 101.15 44.4032 101.647 44.1129C102.133 43.8282 102.658 43.6194 103.221 43.4864C103.783 43.3534 104.347 43.3238 104.914 43.3977C105.48 43.4715 106.012 43.6765 106.509 44.0125C107.017 44.3428 107.456 44.8241 107.827 45.4565C108.226 46.1374 108.421 46.8268 108.412 47.5245C108.418 48.2263 108.205 48.8996 107.773 49.5444C107.356 50.1932 106.705 50.7767 105.819 51.2947L105.366 51.5594L102.149 46.0727C101.578 46.4589 101.184 46.9572 100.967 47.5676C100.75 48.178 100.826 48.7994 101.197 49.4317C101.408 49.7917 101.641 50.0542 101.894 50.2194C102.158 50.3788 102.405 50.4763 102.634 50.5117C102.864 50.547 103.052 50.5549 103.197 50.5352C103.348 50.5253 103.424 50.5203 103.424 50.5203L104.331 52.0671C104.331 52.0671 104.229 52.094 104.025 52.1478C103.831 52.196 103.568 52.2259 103.235 52.2377C102.908 52.2593 102.546 52.2225 102.151 52.1273C101.755 52.0321 101.352 51.8363 100.943 51.5399C100.544 51.2378 100.176 50.7998 99.8395 50.2258ZM103.326 45.4042L105.593 49.2711C106.252 48.8337 106.633 48.3363 106.738 47.7788C106.848 47.231 106.76 46.7139 106.475 46.2275C106.156 45.6827 105.71 45.3356 105.139 45.1863C104.578 45.0313 103.973 45.104 103.326 45.4042Z" fill="#334456"/>
<path d="M103.412 59.8511C103.167 58.9011 103.172 58.0437 103.428 57.2787C103.687 56.5247 104.117 55.8897 104.717 55.3738C105.32 54.8687 106.01 54.5162 106.785 54.3162C107.56 54.1162 108.334 54.0913 109.106 54.2414C109.882 54.4024 110.566 54.7501 111.158 55.2844C111.753 55.8297 112.174 56.5772 112.42 57.5272C112.662 58.4662 112.654 59.3127 112.395 60.0667C112.139 60.8317 111.709 61.4667 111.106 61.9717C110.506 62.4876 109.818 62.8456 109.043 63.0456C108.268 63.2456 107.492 63.2651 106.717 63.1041C105.945 62.954 105.261 62.6063 104.665 62.061C104.073 61.5267 103.655 60.79 103.412 59.8511ZM105.001 59.4412C105.139 59.9762 105.392 60.3887 105.758 60.6785C106.127 60.9794 106.559 61.1648 107.055 61.2349C107.553 61.316 108.053 61.2917 108.556 61.1621C109.069 61.0298 109.518 60.809 109.904 60.4998C110.304 60.1986 110.592 59.8273 110.769 59.3856C110.949 58.9549 110.969 58.472 110.831 57.937C110.693 57.402 110.439 56.9841 110.07 56.6833C109.701 56.3825 109.269 56.197 108.773 56.1269C108.288 56.0539 107.789 56.0837 107.276 56.2161C106.774 56.3456 106.323 56.561 105.923 56.8621C105.524 57.1632 105.236 57.5346 105.059 57.9762C104.882 58.4179 104.862 58.9062 105.001 59.4412Z" fill="#334456"/>
<path d="M103.402 72.4961L116.326 73.0789L115.729 75.0015L105.696 74.4634L114.235 79.8161L113.648 81.7064L103.591 81.3026L112.159 86.5049L111.562 88.4275L100.574 81.6083L101.276 79.3464L110.648 79.7329L102.7 74.758L103.402 72.4961Z" fill="#334456"/>
<path d="M103.821 92.261C103.487 92.7148 103.136 93.038 102.77 93.2306C102.397 93.4322 102.048 93.5537 101.724 93.5949C101.399 93.6361 101.138 93.6474 100.942 93.6289L100.882 93.7105L101.958 94.5023L100.814 96.0543L93.5922 90.7424L94.7368 89.1904L95.8132 89.9822L95.8734 89.9005C95.7974 89.7186 95.731 89.4668 95.6741 89.1449C95.6172 88.8231 95.6299 88.4545 95.7121 88.039C95.7877 87.6326 95.9928 87.2025 96.3275 86.7487C96.7291 86.2042 97.185 85.8045 97.6951 85.5498C98.2076 85.3108 98.7414 85.1855 99.2965 85.1738C99.8606 85.1688 100.415 85.2619 100.961 85.4532C101.5 85.6535 102.001 85.9241 102.464 86.2648C102.927 86.6056 103.335 87.0032 103.686 87.4577C104.031 87.9212 104.28 88.4194 104.433 88.9522C104.596 89.4918 104.634 90.038 104.549 90.5911C104.465 91.1598 104.223 91.7165 103.821 92.261ZM102.276 91.6492C102.604 91.2045 102.756 90.7422 102.731 90.2623C102.716 89.7891 102.579 89.3384 102.32 88.9101C102.055 88.491 101.718 88.1311 101.309 87.8304C100.901 87.5297 100.456 87.315 99.977 87.1863C99.4908 87.0666 99.0146 87.0663 98.5484 87.1854C98.0914 87.3112 97.6988 87.5965 97.3709 88.0412C97.0429 88.4859 96.8899 88.9403 96.9118 89.4044C96.9362 89.8843 97.081 90.3339 97.3464 90.753C97.605 91.1813 97.9387 91.5457 98.3474 91.8464C98.7562 92.147 99.2037 92.3572 99.6899 92.4769C100.169 92.6056 100.638 92.6071 101.095 92.4813C101.554 92.3713 101.948 92.0939 102.276 91.6492Z" fill="#334456"/>
<path d="M88.3591 94.5228C88.9126 94.0775 89.4377 93.8215 89.9344 93.7548C90.4312 93.6881 90.8887 93.7614 91.3071 93.9748C91.7238 94.2041 92.0914 94.5162 92.41 94.9112L95.3835 98.5978L96.6092 97.6118L97.5862 98.8231L96.3606 99.8091L97.7624 101.547L96.2599 102.756L94.8581 101.018L93.2239 102.332L92.2468 101.121L93.8811 99.8064L90.9288 96.1461C90.3978 95.4878 89.7677 95.452 89.0385 96.0386C88.8539 96.187 88.6932 96.338 88.5563 96.4916C88.4194 96.6452 88.3509 96.7219 88.3509 96.7219L87.3633 95.4975C87.3633 95.4975 87.459 95.3916 87.6503 95.1797C87.8329 94.975 88.0691 94.756 88.3591 94.5228Z" fill="#334456"/>
<path d="M80.4367 98.8702C81.1237 98.5557 81.7775 98.3991 82.3984 98.4002C83.0239 98.4115 83.5976 98.5396 84.1193 98.7845C84.6459 99.0396 85.1115 99.3784 85.5163 99.8008C85.9108 100.228 86.2281 100.703 86.468 101.226C86.7079 101.748 86.8611 102.298 86.9275 102.876C86.9838 103.458 86.9344 104.026 86.7795 104.581C86.6294 105.146 86.3521 105.663 85.9476 106.134C85.5479 106.614 85.0046 107.012 84.3177 107.326C83.641 107.636 83.0352 107.789 82.5002 107.786C81.9597 107.798 81.488 107.716 81.085 107.541C80.682 107.366 80.3457 107.16 80.076 106.924C79.8063 106.687 79.609 106.474 79.4842 106.283C79.3491 106.097 79.2815 106.004 79.2815 106.004L80.9424 105.243C80.9424 105.243 81.0033 105.308 81.1252 105.439C81.2367 105.574 81.4062 105.713 81.6336 105.857C81.8609 106.001 82.1432 106.089 82.4803 106.121C82.8072 106.157 83.1911 106.074 83.6319 105.873C84.1548 105.633 84.5294 105.301 84.7557 104.875C84.9867 104.459 85.098 103.998 85.0897 103.494C85.0711 102.994 84.9513 102.503 84.7302 102.021C84.5091 101.539 84.2149 101.128 83.8478 100.788C83.4704 100.452 83.0462 100.231 82.5753 100.124C82.1091 100.027 81.6146 100.098 81.0917 100.338C80.6508 100.54 80.3375 100.776 80.1518 101.047C79.9558 101.323 79.8382 101.594 79.799 101.86C79.7598 102.126 79.7549 102.345 79.7845 102.518C79.8038 102.695 79.8134 102.783 79.8134 102.783L78.1525 103.544C78.1525 103.544 78.126 103.432 78.0729 103.208C78.0096 102.989 77.9763 102.7 77.9732 102.342C77.9701 101.984 78.0336 101.595 78.1637 101.176C78.2939 100.756 78.5375 100.341 78.8945 99.9296C79.246 99.5331 79.7601 99.1799 80.4367 98.8702Z" fill="#334456"/>
<path d="M74.7345 100.907L76.8154 113.594L74.9127 113.906L74.0721 108.781L73.9719 108.797C73.9196 108.966 73.8171 109.177 73.6644 109.43C73.5136 109.695 73.2859 109.944 72.9813 110.176C72.6655 110.411 72.2461 110.571 71.7232 110.656C71.0667 110.764 70.4912 110.704 69.9968 110.476C69.5024 110.248 69.1029 109.902 68.7982 109.438C68.4824 108.975 68.2752 108.443 68.1766 107.842L67.2402 102.133L69.143 101.822L70.0466 107.331C70.1342 107.865 70.3583 108.291 70.719 108.609C71.0685 108.929 71.5326 109.042 72.1113 108.947C72.5675 108.873 72.9211 108.695 73.172 108.414C73.4137 108.146 73.5712 107.817 73.6445 107.428C73.7196 107.05 73.7234 106.655 73.6559 106.243L72.8317 101.218L74.7345 100.907Z" fill="#334456"/>
<path d="M54.7282 100.121L55.2456 113.365L53.2556 112.759L52.8809 101.769L46.4442 110.684L44.4542 110.077L52.3014 99.3815L54.7282 100.121Z" fill="#334456"/>
<path d="M40.6042 105.203C40.905 105.381 41.0921 105.629 41.1653 105.947C41.2386 106.266 41.1947 106.561 41.0336 106.832C40.8667 107.114 40.6287 107.294 40.3195 107.373C40.0046 107.462 39.6967 107.417 39.3959 107.239C39.0951 107.061 38.908 106.813 38.8347 106.495C38.746 106.18 38.7851 105.882 38.9519 105.601C39.1188 105.32 39.3645 105.137 39.6892 105.054C39.9983 104.975 40.3033 105.025 40.6042 105.203ZM46.7789 96.65L42.2047 104.361L40.5452 103.379L45.1194 95.6682L46.7789 96.65Z" fill="#334456"/>
<path d="M39.0891 90.5579C39.578 91.0257 39.9159 91.5286 40.103 92.0665C40.2741 92.6049 40.3296 93.1496 40.2696 93.7009C40.2017 94.2602 40.0376 94.7978 39.7773 95.3134C39.5088 95.8213 39.1754 96.2827 38.7773 96.6977C38.3791 97.1127 37.9317 97.465 37.4351 97.7546C36.9303 98.0363 36.4035 98.2189 35.8546 98.3024C35.2979 98.394 34.7505 98.3619 34.2125 98.206C33.6585 98.0504 33.1371 97.7388 32.6482 97.271C32.2409 96.8812 31.9652 96.4925 31.8213 96.1051C31.6692 95.7098 31.5936 95.3488 31.5946 95.022C31.5956 94.6952 31.618 94.4356 31.6618 94.2434L31.5885 94.1733L27.9699 97.9448L26.5767 96.6116L35.4768 87.3354L36.87 88.6685L35.9449 89.6328L36.0182 89.7029C36.2086 89.651 36.4673 89.6176 36.7942 89.6027C37.1211 89.5877 37.4855 89.6477 37.8874 89.7825C38.2812 89.9096 38.6818 90.1681 39.0891 90.5579ZM37.6711 91.4251C37.2719 91.0431 36.8404 90.8331 36.3767 90.7952C35.897 90.7576 35.432 90.8432 34.9815 91.0521C34.5229 91.2532 34.118 91.5368 33.7667 91.903C33.4153 92.2692 33.1489 92.6853 32.9673 93.1515C32.7776 93.6099 32.7156 94.0735 32.7815 94.5423C32.8314 95.0115 33.056 95.4371 33.4552 95.8191C33.8544 96.2011 34.2939 96.4109 34.7735 96.4485C35.2454 96.4942 35.7106 96.4165 36.1692 96.2154C36.6197 96.0065 37.0205 95.719 37.3719 95.3529C37.7232 94.9867 37.9937 94.5744 38.1834 94.1161C38.365 93.6499 38.4268 93.1783 38.3687 92.7014C38.3028 92.2325 38.0703 91.8071 37.6711 91.4251Z" fill="#334456"/>
<path d="M32.3266 81.5144C32.7088 82.1662 32.9277 82.7959 32.9834 83.4035C33.0236 84.007 32.9452 84.5755 32.7481 85.1088C32.5356 85.6381 32.2365 86.12 31.8509 86.5546C31.4595 86.9795 31.0156 87.3371 30.5192 87.6274C30.0325 87.912 29.5079 88.1208 28.9454 88.2539C28.3829 88.3869 27.8186 88.4164 27.2524 88.3426C26.6862 88.2687 26.1543 88.0638 25.6566 87.7277C25.1492 87.3974 24.71 86.9161 24.3392 86.2838C23.9399 85.6028 23.7448 84.9134 23.754 84.2157C23.7476 83.5139 23.9606 82.8406 24.393 82.1958C24.8099 81.547 25.4612 80.9636 26.3469 80.4455L26.7996 80.1808L30.017 85.6675C30.5879 85.2813 30.9819 84.783 31.1991 84.1726C31.4163 83.5622 31.3395 82.9408 30.9687 82.3085C30.7577 81.9486 30.5253 81.686 30.2716 81.5209C30.0081 81.3614 29.7615 81.264 29.5316 81.2286C29.3017 81.1932 29.1141 81.1853 28.9687 81.205C28.8177 81.215 28.7422 81.2199 28.7422 81.2199L27.8351 79.6732C27.8351 79.6732 27.937 79.6462 28.1407 79.5924C28.3347 79.5443 28.5982 79.5143 28.9311 79.5025C29.2584 79.4809 29.6198 79.5178 30.0155 79.613C30.4112 79.7082 30.8136 79.904 31.2227 80.2003C31.622 80.5024 31.99 80.9404 32.3266 81.5144ZM28.8404 86.336L26.5728 82.4691C25.9143 82.9065 25.5328 83.404 25.4284 83.9615C25.3182 84.5093 25.4058 85.0264 25.691 85.5128C26.0105 86.0576 26.4558 86.4046 27.027 86.5539C27.5885 86.7089 28.193 86.6363 28.8404 86.336Z" fill="#334456"/>
<path d="M28.7559 71.8899C29.0016 72.8398 28.9963 73.6973 28.74 74.4622C28.4808 75.2163 28.0511 75.8513 27.4509 76.3672C26.8478 76.8722 26.1586 77.2247 25.3835 77.4247C24.6083 77.6247 23.8345 77.6497 23.0619 77.4996C22.2865 77.3386 21.6026 76.9909 21.0102 76.4566C20.4149 75.9113 19.9944 75.1637 19.7487 74.2138C19.5058 73.2748 19.5139 72.4283 19.773 71.6742C20.0294 70.9093 20.4591 70.2743 21.0621 69.7693C21.6624 69.2533 22.3501 68.8954 23.1253 68.6954C23.9005 68.4954 24.6757 68.4759 25.4511 68.6369C26.2237 68.787 26.9076 69.1347 27.5028 69.6799C28.0953 70.2143 28.513 70.9509 28.7559 71.8899ZM27.1673 72.2998C27.0289 71.7648 26.7766 71.3523 26.4105 71.0624C26.0415 70.7616 25.6092 70.5761 25.1136 70.506C24.6151 70.425 24.1147 70.4492 23.6125 70.5788C23.0994 70.7112 22.6499 70.932 22.264 71.2412C21.8644 71.5423 21.5761 71.9137 21.3992 72.3553C21.2195 72.7861 21.1988 73.2689 21.3372 73.804C21.4756 74.339 21.7293 74.7569 22.0983 75.0577C22.4673 75.3585 22.8996 75.544 23.3952 75.6141C23.8799 75.687 24.3789 75.6573 24.892 75.5249C25.3942 75.3953 25.8452 75.18 26.2448 74.8789C26.6444 74.5778 26.9326 74.2064 27.1096 73.7648C27.2865 73.3231 27.3057 72.8348 27.1673 72.2998Z" fill="#334456"/>
<path d="M78.7063 64.8335L59.6086 76.8651L59.6086 52.802L78.7063 64.8335Z" fill="#334456"/>
</svg>
