<svg width="42" height="31" viewBox="0 0 42 31" fill="none" xmlns="http://www.w3.org/2000/svg">
<path d="M27.9076 21.224C24.8613 21.224 22.3809 18.7453 22.3809 15.6974C22.3809 12.6562 24.8613 10.1758 27.9076 10.1758H38.417V21.224H27.9076H27.9076ZM27.7274 14.362C26.9915 14.362 26.392 14.9615 26.392 15.6974C26.392 16.4366 26.9915 17.0327 27.7274 17.0327C28.4633 17.0327 29.0628 16.4366 29.0628 15.6974C29.0628 14.9615 28.4633 14.362 27.7274 14.362ZM35.0205 1H6.93924C6.19999 1 5.60388 1.59948 5.60388 2.33536C5.60388 3.07124 6.19999 3.67072 6.93924 3.67072H35.0205C36.893 3.67072 38.417 5.19468 38.417 7.07227V7.50335H27.9076C23.3879 7.50335 19.7085 11.1777 19.7085 15.6974C19.7085 20.2187 23.3879 23.8964 27.9076 23.8964H38.417V24.3275C38.417 26.2018 36.893 27.7257 35.0205 27.7257H7.0689C5.19636 27.7257 3.6724 26.2017 3.6724 24.3275V6.93923C3.6724 6.19999 3.07461 5.60219 2.33704 5.60219C1.5978 5.60219 1 6.19999 1 6.93923V24.3275C1 27.6769 3.72292 30.3981 7.0689 30.3981H35.0205C38.3665 30.3981 41.0911 27.6769 41.0911 24.3275V7.07227C41.0911 3.72124 38.3665 1 35.0205 1Z" fill="white" stroke="white"/>
</svg>
