<svg width="36" height="36" viewBox="0 0 36 36" fill="none" xmlns="http://www.w3.org/2000/svg">
<path d="M19.1819 19.0748H33.8505C34.443 19.0878 35.0134 18.8503 35.4216 18.4206C35.8298 17.991 36.0377 17.4091 35.9944 16.8181C35.5261 12.8066 33.7863 9.0503 31.0296 6.09874C27.919 2.7387 23.7244 0.58148 19.1819 0.00564904C18.5909 -0.0377333 18.009 0.170236 17.5794 0.578399C17.1497 0.986564 16.9122 1.55704 16.9252 2.14951V16.8181C16.9252 18.0644 17.9356 19.0748 19.1819 19.0748H19.1819ZM21.4386 5.08322C23.8773 5.83279 26.0631 7.23795 27.7574 9.14528C29.191 10.7001 30.269 12.5482 30.9168 14.5614H21.4386V5.08322ZM33.9633 21.4443C32.8107 20.999 31.5127 21.5482 31.0296 22.6855C28.9253 27.9422 23.8287 31.3847 18.1664 31.3738C10.7193 31.4866 4.5134 25.2807 4.5134 17.7207C4.50248 12.0585 7.94497 6.96183 13.2017 4.85755C14.2775 4.34262 14.7668 3.07947 14.3187 1.97417C13.8706 0.868864 12.6398 0.303081 11.5092 0.682657C4.56531 3.49357 0.0151909 10.2295 0 17.7207C0 27.7631 8.23695 36 18.2793 36C26.0649 36 32.6093 31.1481 35.3173 24.378C35.5348 23.8099 35.5136 23.1781 35.2587 22.6257C35.0038 22.0734 34.5367 21.6474 33.9633 21.4443L33.9633 21.4443Z" fill="#FCF9F0"/>
</svg>
