<svg width="37" height="33" viewBox="0 0 37 33" fill="none" xmlns="http://www.w3.org/2000/svg">
<path d="M18.5 25C14.3579 25 11 21.6421 11 17.5C11 13.3579 14.3579 10 18.5 10C22.6421 10 26 13.3579 26 17.5C25.9967 21.6407 22.6408 24.9967 18.5 25ZM18.5 12.0136C15.4674 12.0136 13.0089 14.4721 13.0089 17.5047C13.0089 20.5373 15.4674 22.9957 18.5 22.9957C21.5326 22.9957 23.9911 20.5373 23.9911 17.5047C23.9889 14.473 21.5317 12.0158 18.5 12.0136Z" fill="white" stroke="white"/>
<path d="M8.25984 26.4085C8.21684 26.4086 8.17385 26.4066 8.13105 26.4024C8.08812 26.398 8.04343 26.391 8.00313 26.3831C7.96282 26.3752 7.91551 26.3638 7.87784 26.3515C7.83682 26.339 7.79646 26.3244 7.75693 26.3077C7.71749 26.2916 7.67889 26.2735 7.64128 26.2534C7.60309 26.2331 7.56595 26.2109 7.53001 26.1868C7.49496 26.1632 7.45992 26.1377 7.42662 26.1106C7.39333 26.0834 7.36091 26.0537 7.33024 26.023C7.29958 25.9923 7.27067 25.9599 7.24263 25.9266C7.21459 25.8934 7.19006 25.8583 7.16641 25.8232C7.14264 25.7873 7.12071 25.7501 7.10069 25.712C7.08083 25.674 7.06243 25.6354 7.0455 25.5963C7.02885 25.5569 7.01483 25.5157 7.00169 25.4745C6.98855 25.4333 6.97891 25.3922 6.97015 25.3501C6.96139 25.3081 6.95525 25.2625 6.95088 25.2222C6.94695 25.1796 6.94519 25.137 6.94562 25.0943C6.94548 25.051 6.94752 25.0077 6.95175 24.9646C6.95613 24.9225 6.96314 24.8769 6.97103 24.8376C6.97891 24.7981 6.9903 24.7499 7.00256 24.7123C7.01483 24.6746 7.02972 24.6308 7.04637 24.5913C7.06302 24.5519 7.08142 24.5134 7.10157 24.4757C7.12159 24.4375 7.14352 24.4004 7.16728 24.3644C7.19094 24.3294 7.21635 24.2943 7.24351 24.261C7.27067 24.2278 7.30046 24.1953 7.33113 24.1647C7.36179 24.134 7.39421 24.1051 7.4275 24.0771C7.46079 24.049 7.49584 24.0245 7.53088 24.0008C7.60283 23.9539 7.67877 23.9135 7.75781 23.88C7.79723 23.8633 7.83841 23.8493 7.87872 23.8361C7.91902 23.823 7.96633 23.8133 8.00401 23.8046C8.04168 23.7958 8.09162 23.7897 8.13193 23.7853C8.2179 23.7774 8.30441 23.7774 8.39039 23.7853C8.43245 23.7897 8.478 23.7967 8.51743 23.8046C8.55686 23.8125 8.60505 23.8239 8.64185 23.8361C8.67864 23.8484 8.7242 23.8633 8.76363 23.88C8.80306 23.8966 8.84161 23.915 8.87928 23.9351C8.95514 23.9756 9.02701 24.0231 9.09394 24.0771C9.12723 24.1042 9.15965 24.134 9.18944 24.1647C9.21923 24.1953 9.24901 24.2278 9.27705 24.261C9.30509 24.2943 9.32962 24.3294 9.35328 24.3644C9.37704 24.4004 9.39897 24.4375 9.419 24.4757C9.43885 24.5136 9.45725 24.5522 9.47419 24.5913C9.49084 24.6308 9.50485 24.6719 9.518 24.7123C9.53114 24.7526 9.54078 24.7955 9.54954 24.8376C9.5583 24.8796 9.56444 24.9252 9.56881 24.9646C9.57275 25.0077 9.5745 25.051 9.57408 25.0943C9.57423 25.1373 9.57219 25.1803 9.56794 25.2231C9.56355 25.266 9.55655 25.3107 9.54866 25.351C9.54078 25.3913 9.52938 25.4386 9.51712 25.4754C9.50485 25.5122 9.48997 25.5577 9.47331 25.5972C9.45667 25.6366 9.43827 25.6752 9.41811 25.7128C9.3981 25.7511 9.37617 25.7882 9.35241 25.8241C9.32875 25.8592 9.30246 25.8942 9.27618 25.9275C9.24989 25.9608 9.21923 25.9932 9.18856 26.0239C9.1579 26.0546 9.12636 26.0834 9.09307 26.1115C9.02587 26.1653 8.95404 26.2131 8.8784 26.2543C8.84074 26.2736 8.80218 26.2928 8.76275 26.3086C8.72299 26.3254 8.68233 26.34 8.64097 26.3524C8.60066 26.3647 8.55861 26.3752 8.51656 26.384C8.4745 26.3927 8.42894 26.3989 8.38952 26.4033C8.34641 26.4072 8.30313 26.409 8.25984 26.4085Z" fill="white" stroke="white"/>
<path d="M34.9071 32H2.31423C1.5884 32 1 31.4116 1 30.6858V7.23644C1 6.51062 1.5884 5.92222 2.31423 5.92222H9.37689L11.4797 1.72546C11.7022 1.28136 12.1561 1.00068 12.6528 1H24.5685C25.0662 0.999684 25.5213 1.28051 25.7443 1.72546L27.847 5.92222H34.9088C35.6347 5.92222 36.2231 6.51062 36.2231 7.23644V30.6858C36.2231 31.0346 36.0844 31.3692 35.8375 31.6157C35.5907 31.8622 35.2559 32.0005 34.9071 32ZM3.62846 29.3715H33.5928V8.55067H27.034C26.5367 8.55067 26.0819 8.26992 25.8591 7.82526L23.7563 3.62846H13.465L11.3623 7.82522C11.1396 8.26959 10.6852 8.55032 10.1882 8.55067H3.62846V29.3715Z" fill="white" stroke="white"/>
</svg>
