<svg width="30" height="30" viewBox="0 0 30 30" fill="none" xmlns="http://www.w3.org/2000/svg">
<path d="M15.2587 0C11.2552 0 10.7532 0.0169693 9.18095 0.0887087C7.61193 0.160331 6.54035 0.409488 5.60265 0.773919C4.63329 1.15064 3.81121 1.65469 2.99171 2.47419C2.17221 3.29369 1.66816 4.11577 1.29144 5.08513C0.927007 6.02277 0.677851 7.09435 0.606228 8.66337C0.534489 10.2357 0.517578 10.7377 0.517578 14.7411C0.517578 18.7446 0.534489 19.2466 0.606228 20.8189C0.677851 22.3879 0.927007 23.4595 1.29144 24.3971C1.66816 25.3665 2.17221 26.1885 2.99171 27.0081C3.81121 27.8276 4.63329 28.3317 5.60265 28.7084C6.54035 29.0728 7.61193 29.322 9.18095 29.3935C10.7532 29.4653 11.2552 29.4822 15.2587 29.4822C19.2621 29.4822 19.7641 29.4653 21.3364 29.3935C22.9055 29.322 23.977 29.0728 24.9147 28.7084C25.884 28.3317 26.7061 27.8276 27.5257 27.0081C28.3452 26.1885 28.8492 25.3665 29.226 24.3971C29.5903 23.4595 29.8395 22.3879 29.9111 20.8189C29.9828 19.2466 29.9998 18.7446 29.9998 14.7411C29.9998 10.7377 29.9828 10.2357 29.9111 8.66337C29.8395 7.09435 29.5903 6.02277 29.226 5.08513C28.8492 4.11577 28.3452 3.29369 27.5257 2.47419C26.7061 1.65469 25.884 1.15064 24.9147 0.773919C23.977 0.409488 22.9055 0.160331 21.3364 0.0887087C19.7641 0.0169693 19.2621 0 15.2587 0ZM15.2587 2.65611C19.1947 2.65611 19.661 2.67109 21.2154 2.74201C22.6526 2.80761 23.4331 3.04775 23.9526 3.24957C24.6407 3.51698 25.1317 3.83647 25.6475 4.35228C26.1634 4.86809 26.4828 5.35921 26.7502 6.04723C26.9521 6.56667 27.1923 7.3472 27.2578 8.78444C27.3287 10.3388 27.3438 10.8051 27.3438 14.7411C27.3438 18.6772 27.3287 19.1434 27.2578 20.6978C27.1923 22.135 26.9521 22.9156 26.7502 23.435C26.4828 24.1231 26.1634 24.6141 25.6475 25.13C25.1317 25.6458 24.6407 25.9653 23.9526 26.2327C23.4331 26.4345 22.6526 26.6747 21.2154 26.7402C19.6612 26.8111 19.195 26.8262 15.2587 26.8262C11.3224 26.8262 10.8562 26.8111 9.30202 26.7402C7.86478 26.6747 7.08424 26.4345 6.56481 26.2327C5.87673 25.9653 5.38567 25.6458 4.8698 25.13C4.35399 24.6141 4.0345 24.1231 3.76715 23.435C3.56527 22.9156 3.32513 22.135 3.25953 20.6978C3.18861 19.1434 3.17363 18.6772 3.17363 14.7411C3.17363 10.8051 3.18861 10.3388 3.25953 8.78444C3.32513 7.3472 3.56527 6.56667 3.76715 6.04723C4.0345 5.35921 4.35399 4.86809 4.8698 4.35228C5.38567 3.83647 5.87673 3.51698 6.56481 3.24957C7.08424 3.04775 7.86478 2.80761 9.30202 2.74201C10.8564 2.67109 11.3227 2.65611 15.2587 2.65611Z" fill="#334456"/>
<path d="M15.2588 19.6549C12.5449 19.6549 10.345 17.4549 10.345 14.7412C10.345 12.0274 12.5449 9.82743 15.2588 9.82743C17.9725 9.82743 20.1724 12.0274 20.1724 14.7412C20.1724 17.4549 17.9725 19.6549 15.2588 19.6549ZM15.2588 7.17139C11.078 7.17139 7.68896 10.5605 7.68896 14.7412C7.68896 18.9218 11.078 22.3109 15.2588 22.3109C19.4394 22.3109 22.8285 18.9218 22.8285 14.7412C22.8285 10.5605 19.4394 7.17139 15.2588 7.17139Z" fill="#334456"/>
<path d="M24.8965 6.87218C24.8965 7.84914 24.1045 8.64108 23.1275 8.64108C22.1506 8.64108 21.3586 7.84914 21.3586 6.87218C21.3586 5.89521 22.1506 5.10327 23.1275 5.10327C24.1045 5.10327 24.8965 5.89521 24.8965 6.87218Z" fill="#334456"/>
</svg>
