<svg width="26" height="21" viewBox="0 0 26 21" fill="none" xmlns="http://www.w3.org/2000/svg">
<path d="M25.9175 2.44903C24.9809 2.86348 23.9798 3.14336 22.9248 3.27254C24.0013 2.62665 24.8302 1.60398 25.2178 0.387543C24.2112 0.984993 23.0971 1.42097 21.9075 1.65242C20.9548 0.635132 19.5984 0 18.1021 0C15.2225 0 12.8919 2.336 12.8919 5.21562C12.8919 5.62469 12.9349 6.02299 13.0264 6.40514C8.69356 6.18985 4.85047 4.11221 2.28303 0.952698C1.83628 1.72239 1.57793 2.62126 1.57793 3.57396C1.57793 5.38248 2.49833 6.98107 3.89777 7.91762C3.04196 7.89609 2.23459 7.65926 1.53487 7.26634C1.53487 7.28787 1.53487 7.3094 1.53487 7.33093C1.53487 9.86069 3.33261 11.9652 5.71705 12.4443C5.28107 12.5627 4.81817 12.6273 4.34452 12.6273C4.01081 12.6273 3.68247 12.595 3.36491 12.5304C4.02695 14.6027 5.95388 16.1097 8.23605 16.1528C6.45445 17.5522 4.20457 18.3865 1.76093 18.3865C1.3411 18.3865 0.926647 18.3596 0.517578 18.3112C2.82128 19.8075 5.56096 20.6687 8.49979 20.6687C18.0914 20.6687 23.3339 12.7188 23.3339 5.82384C23.3339 5.59777 23.3285 5.37171 23.3177 5.15103C24.335 4.41363 25.2178 3.49323 25.9175 2.44903Z" fill="#334456"/>
</svg>
